<svg width="20" height="20" viewBox="0 0 20 20" fill="none" xmlns="http://www.w3.org/2000/svg">
<path fill-rule="evenodd" clip-rule="evenodd" d="M20 0H0V20H20V0ZM11.4016 8.75004V3.33337H8.65534V8.75004C8.65534 9.33085 8.69007 9.9085 8.75951 10.483C8.82895 11.0512 8.9205 11.632 9.03413 12.2254H11.0228C11.1364 11.632 11.2279 11.0512 11.2974 10.483C11.3668 9.9085 11.4016 9.33085 11.4016 8.75004ZM8.45648 15.0095C8.37441 15.2052 8.33337 15.4167 8.33337 15.644C8.33337 15.8713 8.37441 16.0859 8.45648 16.2879C8.54486 16.4836 8.66166 16.6541 8.80686 16.7993C8.95837 16.9445 9.13514 17.0581 9.33716 17.1402C9.53918 17.2223 9.76014 17.2633 10 17.2633C10.2336 17.2633 10.4514 17.2223 10.6535 17.1402C10.8555 17.0581 11.0322 16.9445 11.1838 16.7993C11.3353 16.6541 11.4521 16.4836 11.5341 16.2879C11.6225 16.0859 11.6667 15.8713 11.6667 15.644C11.6667 15.4167 11.6225 15.2052 11.5341 15.0095C11.4521 14.8138 11.3353 14.6433 11.1838 14.4981C11.0322 14.3529 10.8555 14.2393 10.6535 14.1572C10.4514 14.0689 10.2336 14.0247 10 14.0247C9.76014 14.0247 9.53918 14.0689 9.33716 14.1572C9.13514 14.2393 8.95837 14.3529 8.80686 14.4981C8.66166 14.6433 8.54486 14.8138 8.45648 15.0095Z" fill="#EB5757"/>
</svg>
