<svg width="312" height="312" viewBox="0 0 312 312" fill="none" xmlns="http://www.w3.org/2000/svg">
<rect width="312" height="312" rx="40" fill="#333333"/>
<path fill-rule="evenodd" clip-rule="evenodd" d="M86.26 68C82.5806 68 79.0745 69.5633 76.6155 72.3002L36.0796 117.417C31.5728 122.433 31.6634 130.066 36.288 134.974L146.413 251.839C146.536 251.972 146.663 252.103 146.792 252.232C149.309 254.736 152.617 255.999 155.931 256C157.86 256 159.791 255.573 161.57 254.713C162.839 254.101 164.027 253.27 165.078 252.224C165.204 252.098 165.328 251.97 165.449 251.84L275.574 134.974C280.199 130.066 280.289 122.433 275.782 117.417L235.246 72.3002C232.787 69.5633 229.281 68 225.602 68H155.931H86.26ZM155.931 93.931H92.0409L63.3421 125.873L155.931 224.129L248.52 125.873L219.821 93.931H155.931Z" fill="white"/>
</svg>
