<svg width="169" height="31" viewBox="0 0 169 31" fill="none" xmlns="http://www.w3.org/2000/svg">
<g clip-path="url(#clip0)">
<path d="M20.36 29C27.53 21.3911 38.72 9.51622 38.72 9.51622L31.9669 2H20.36" stroke="#333333" stroke-width="4" stroke-linecap="round" stroke-linejoin="round"/>
<path d="M20.36 29C13.19 21.3911 2 9.51622 2 9.51622L8.7531 2H20.36" stroke="#333333" stroke-width="4" stroke-linecap="round" stroke-linejoin="round"/>
<path d="M59.3066 26.4766V3.76758L55.2891 2.00586L55.6543 0.265625H67.9863C69.9342 0.265625 71.4883 0.294271 72.6484 0.351562C73.8086 0.408854 74.9329 0.559245 76.0215 0.802734C77.11 1.04622 78.1055 1.43294 79.0078 1.96289C80.1393 2.63607 81.0345 3.60286 81.6934 4.86328C82.3665 6.1237 82.7031 7.52018 82.7031 9.05273C82.7031 10.4277 82.4023 11.6738 81.8008 12.791C81.2135 13.9082 80.3685 14.832 79.2656 15.5625C78.0768 16.3216 76.6302 16.8659 74.9258 17.1953C73.2357 17.5247 71.5527 17.6895 69.877 17.6895L70.1348 16.25C71.3522 15.5625 72.2975 14.9036 72.9707 14.2734C73.6582 13.6289 74.1595 12.8913 74.4746 12.0605C74.7897 11.2155 74.9473 10.1628 74.9473 8.90234C74.9473 7.34115 74.5964 6.05208 73.8945 5.03516C73.207 4.00391 72.2832 3.25195 71.123 2.7793C69.9772 2.29232 68.681 2.03451 67.2344 2.00586V26.498L72.6484 28.2598L72.3262 30H55.0957L55.4609 28.1738L59.3066 26.4766ZM82.5493 20.0742C82.5493 18.1549 83.022 16.3503 83.9673 14.6602C84.9269 12.9701 86.2661 11.6165 87.9848 10.5996C89.7036 9.56836 91.6443 9.05273 93.8071 9.05273C95.8839 9.05273 97.7531 9.43229 99.4145 10.1914C101.09 10.9362 102.415 12.0964 103.389 13.6719C104.377 15.2331 104.872 17.1882 104.872 19.5371C104.872 21.4564 104.392 23.2611 103.432 24.9512C102.487 26.6413 101.155 27.9948 99.436 29.0117C97.7173 30.0286 95.7765 30.5371 93.6138 30.5371C91.5369 30.5371 89.6606 30.1647 87.9848 29.4199C86.3234 28.6608 84.9985 27.5007 84.0102 25.9395C83.0363 24.3783 82.5493 22.4232 82.5493 20.0742ZM95.268 27.3789C95.6834 27.3789 96.0343 27.3359 96.3208 27.25C96.6072 27.1497 96.7934 27.0208 96.8794 26.8633C97.0942 26.4909 97.2661 25.8249 97.395 24.8652C97.5239 23.8913 97.5884 22.8815 97.5884 21.8359C97.5884 19.888 97.3592 18.1908 96.9009 16.7441C96.4568 15.2975 95.8195 14.1803 94.9888 13.3926C94.1723 12.6048 93.2199 12.2109 92.1313 12.2109C91.7303 12.2109 91.3865 12.2611 91.1001 12.3613C90.8136 12.4473 90.6274 12.569 90.5415 12.7266C90.3266 13.0846 90.1548 13.7507 90.0259 14.7246C89.897 15.6842 89.8325 16.694 89.8325 17.7539C89.8325 19.7018 90.0545 21.3991 90.4985 22.8457C90.9568 24.2923 91.5942 25.4095 92.4106 26.1973C93.227 26.985 94.1795 27.3789 95.268 27.3789ZM118.536 10.9863C117.877 11.1725 117.11 11.5306 116.237 12.0605C115.363 12.5762 114.726 13.0918 114.325 13.6074C114.167 13.8079 114.053 13.9798 113.981 14.123C113.924 14.2663 113.895 14.431 113.895 14.6172C113.895 14.8607 114.038 15.1042 114.325 15.3477C114.611 15.5911 115.098 15.8633 115.786 16.1641C116.359 16.4219 117.196 16.7585 118.299 17.1738C119.531 17.6608 120.469 18.0404 121.114 18.3125C121.758 18.5846 122.338 18.8711 122.854 19.1719C123.713 19.6732 124.408 20.2962 124.938 21.041C125.482 21.7858 125.754 22.6452 125.754 23.6191C125.754 25.3092 125.232 26.6699 124.186 27.7012C123.14 28.7324 121.816 29.4629 120.211 29.8926C118.622 30.3223 116.939 30.5371 115.163 30.5371C113.601 30.5371 112.162 30.401 110.844 30.1289C109.541 29.8711 108.288 29.4271 107.084 28.7969L108.309 22.8242L110.909 23.3184L112.112 27.959C113.028 27.959 114.138 27.7728 115.442 27.4004C116.745 27.028 117.698 26.6055 118.299 26.1328C118.657 25.875 118.836 25.6172 118.836 25.3594C118.836 25.1302 118.7 24.9297 118.428 24.7578C118.156 24.5859 117.705 24.3854 117.075 24.1562C116.187 23.8411 115.213 23.4473 114.153 22.9746C113.093 22.4876 112.133 21.9935 111.274 21.4922C110.157 20.8333 109.269 20.0671 108.61 19.1934C107.965 18.3053 107.643 17.1595 107.643 15.7559C107.643 14.252 108.109 12.9987 109.04 11.9961C109.985 10.9935 111.188 10.2559 112.649 9.7832C114.124 9.29622 115.671 9.05273 117.29 9.05273C119.681 9.05273 121.543 9.34635 122.875 9.93359C123.477 10.2057 124.071 10.5495 124.659 10.9648C125.246 11.3802 125.54 11.7669 125.54 12.125C125.54 12.612 125.275 13.2064 124.745 13.9082C124.229 14.5957 123.649 15.2116 123.004 15.7559C122.36 16.3001 121.909 16.5723 121.651 16.5723C121.307 16.5723 120.885 16.3789 120.383 15.9922C119.882 15.5911 119.502 15.1973 119.245 14.8105L118.536 10.9863ZM128.021 9.58984H131.093L132.189 5.22852L138.483 2.62891V9.58984H145.101L144.757 11.459L138.483 13.1992V22.1152C138.483 23.0605 138.591 23.9486 138.806 24.7793C139.021 25.5957 139.307 26.1686 139.665 26.498C139.909 26.7129 140.245 26.8203 140.675 26.8203C141.105 26.8203 141.935 26.7415 143.167 26.584C144.399 26.4264 145.272 26.3118 145.788 26.2402L146.067 26.9492C145.208 27.9661 144.105 28.8184 142.759 29.5059C141.412 30.1934 139.873 30.5371 138.14 30.5371C136.034 30.5371 134.33 29.9355 133.026 28.7324C131.737 27.5293 131.093 25.6888 131.093 23.2109V13.1992L127.634 11.502L128.021 9.58984ZM146.444 20.0742C146.444 18.1549 146.916 16.3503 147.862 14.6602C148.821 12.9701 150.161 11.6165 151.879 10.5996C153.598 9.56836 155.539 9.05273 157.702 9.05273C159.778 9.05273 161.648 9.43229 163.309 10.1914C164.985 10.9362 166.31 12.0964 167.284 13.6719C168.272 15.2331 168.766 17.1882 168.766 19.5371C168.766 21.4564 168.286 23.2611 167.327 24.9512C166.381 26.6413 165.049 27.9948 163.331 29.0117C161.612 30.0286 159.671 30.5371 157.508 30.5371C155.431 30.5371 153.555 30.1647 151.879 29.4199C150.218 28.6608 148.893 27.5007 147.905 25.9395C146.931 24.3783 146.444 22.4232 146.444 20.0742ZM159.163 27.3789C159.578 27.3789 159.929 27.3359 160.215 27.25C160.502 27.1497 160.688 27.0208 160.774 26.8633C160.989 26.4909 161.161 25.8249 161.29 24.8652C161.418 23.8913 161.483 22.8815 161.483 21.8359C161.483 19.888 161.254 18.1908 160.795 16.7441C160.351 15.2975 159.714 14.1803 158.883 13.3926C158.067 12.6048 157.114 12.2109 156.026 12.2109C155.625 12.2109 155.281 12.2611 154.995 12.3613C154.708 12.4473 154.522 12.569 154.436 12.7266C154.221 13.0846 154.049 13.7507 153.92 14.7246C153.791 15.6842 153.727 16.694 153.727 17.7539C153.727 19.7018 153.949 21.3991 154.393 22.8457C154.851 24.2923 155.489 25.4095 156.305 26.1973C157.122 26.985 158.074 27.3789 159.163 27.3789Z" fill="#333333"/>
</g>
<defs>
<clipPath id="clip0">
<rect width="169" height="31" fill="white"/>
</clipPath>
</defs>
</svg>
